<?xml version="1.0" standalone="no"?>
<!DOCTYPE svg PUBLIC "-//W3C//DTD SVG 20010904//EN"
 "http://www.w3.org/TR/2001/REC-SVG-20010904/DTD/svg10.dtd">
<svg version="1.0" xmlns="http://www.w3.org/2000/svg"
 width="257.000000pt" height="56.000000pt" viewBox="0 0 257.000000 56.000000"
 preserveAspectRatio="xMidYMid meet">

<g transform="translate(0.000000,56.000000) scale(0.100000,-0.100000)"
fill="#000000" stroke="none">
<path d="M610 270 l0 -220 40 0 39 0 3 68 c4 89 22 89 68 0 l35 -68 48 0 c26
0 47 2 47 5 0 3 -25 49 -55 102 l-54 98 32 35 c18 19 43 47 56 63 l24 27 -49
0 c-47 0 -51 -2 -94 -55 -25 -30 -48 -55 -52 -55 -5 0 -8 44 -8 98 0 107 -6
122 -52 122 l-28 0 0 -220z"/>
<path d="M1930 461 c0 -30 2 -31 41 -31 38 0 40 1 37 28 -3 23 -8 27 -40 30
-36 3 -38 2 -38 -27z"/>
<path d="M2070 270 l0 -220 40 0 40 0 0 208 c0 224 -2 232 -52 232 l-28 0 0
-220z"/>
<path d="M123 381 c-64 -29 -77 -63 -81 -209 l-4 -122 46 0 46 0 0 114 c0 127
8 146 61 146 28 0 29 2 29 45 0 42 -2 45 -27 45 -16 0 -47 -9 -70 -19z"/>
<path d="M351 382 c-61 -30 -76 -62 -76 -157 0 -69 4 -89 21 -112 60 -82 194
-82 244 -1 11 18 20 36 20 41 0 16 -73 6 -97 -13 -14 -11 -33 -20 -42 -20 -27
0 -58 27 -63 55 l-5 25 109 0 110 0 -7 53 c-4 28 -15 66 -24 82 -20 36 -74 65
-121 65 -19 0 -50 -8 -69 -18z m114 -82 c8 -16 15 -31 15 -35 0 -3 -27 -5 -60
-5 -65 0 -77 14 -43 52 26 29 70 23 88 -12z"/>
<path d="M1001 382 c-60 -30 -76 -62 -76 -156 0 -62 4 -89 18 -109 58 -89 199
-88 251 3 15 26 20 53 20 105 0 111 -52 175 -144 175 -19 0 -50 -8 -69 -18z
m108 -78 c32 -40 29 -126 -4 -159 -40 -41 -78 -26 -95 35 -28 105 44 194 99
124z"/>
<path d="M1343 385 c-57 -25 -68 -54 -71 -202 l-4 -133 46 0 46 0 0 130 c0
118 2 130 19 140 29 15 49 12 71 -10 18 -18 20 -33 20 -128 0 -117 6 -132 52
-132 l28 0 0 126 c0 145 -12 183 -65 208 -40 19 -99 20 -142 1z"/>
<path d="M1663 385 c-67 -29 -81 -124 -24 -164 16 -12 52 -26 80 -32 90 -19
105 -69 20 -69 -30 0 -42 5 -55 25 -12 18 -25 25 -50 25 -40 0 -47 -9 -33 -48
14 -41 50 -62 113 -69 98 -10 166 33 166 104 0 62 -23 80 -140 115 -34 10 -46
18 -48 36 -3 20 1 22 36 22 26 0 45 -6 57 -20 11 -13 31 -20 53 -20 32 0 34 1
27 27 -9 37 -24 53 -62 70 -41 17 -99 16 -140 -2z"/>
<path d="M1930 225 l0 -175 40 0 40 0 0 169 c0 183 0 181 -56 181 l-24 0 0
-175z"/>
<path d="M2291 382 c-61 -30 -76 -62 -76 -157 0 -69 4 -89 21 -112 60 -82 194
-82 244 -1 11 18 20 36 20 41 0 16 -73 6 -97 -13 -14 -11 -33 -20 -42 -20 -27
0 -58 27 -63 55 l-5 25 109 0 110 0 -7 53 c-4 28 -15 66 -24 82 -20 36 -74 65
-121 65 -19 0 -50 -8 -69 -18z m114 -82 c8 -16 15 -31 15 -35 0 -3 -27 -5 -60
-5 -65 0 -77 14 -43 52 26 29 70 23 88 -12z"/>
</g>
</svg>
