<?xml version="1.0" encoding="UTF-8" standalone="no"?>
<!-- Created with Inkscape (http://www.inkscape.org/) -->

<svg
   version="1.1"
   id="svg119"
   width="329.57751"
   height="61.095161"
   viewBox="0 0 329.57752 61.095161"
   sodipodi:docname="Rekonsile.logo_.png"
   xmlns:inkscape="http://www.inkscape.org/namespaces/inkscape"
   xmlns:sodipodi="http://sodipodi.sourceforge.net/DTD/sodipodi-0.dtd"
   xmlns="http://www.w3.org/2000/svg"
   xmlns:svg="http://www.w3.org/2000/svg">
  <defs
     id="defs123" />
  <sodipodi:namedview
     id="namedview121"
     pagecolor="#ffffff"
     bordercolor="#111111"
     borderopacity="1"
     inkscape:showpageshadow="0"
     inkscape:pageopacity="0"
     inkscape:pagecheckerboard="1"
     inkscape:deskcolor="#d1d1d1"
     showgrid="false" />
  <g
     inkscape:groupmode="layer"
     inkscape:label="Image"
     id="g125"
     transform="translate(-8.2551574,-7.197135)">
    <path
       style="fill:#270f58;stroke-width:1.33333"
       d="m 8.8989404,63.852207 c -1.71504,-4.469323 0.277935,-30.591565 2.6783256,-35.105252 5.123741,-9.634665 19.88131,-12.450273 20.58843,-3.928083 l 0.411143,4.955069 -3.744476,0.890676 c -7.499606,1.783889 -8.411141,3.730629 -8.411141,17.963453 0,16.034265 -7.439445,25.863839 -11.5222816,15.224137 z M 49.849335,63.528397 C 25.867138,51.29958 42.921717,10.735387 67.693672,21.08577 84.956658,28.298707 82.048493,45.863803 63.591294,45.863803 H 51.087888 v 2.666667 c 0,2.972468 4.4115,8 7.019745,8 0.927527,0 3.925352,-1.2 6.661835,-2.666667 9.65612,-5.17537 14.771562,-2.380835 9.477496,5.177502 -4.567455,6.520956 -16.209812,8.662162 -24.397629,4.487092 z M 65.754554,35.292376 c 0,-6.63058 -9.066547,-9.110172 -12.750857,-3.487207 -2.992898,4.567741 -1.476353,6.058635 6.16288,6.058635 5.617756,0 6.587977,-0.378699 6.587977,-2.571428 z M 85.050166,64.246297 C 84.672837,63.262992 84.526962,50.17467 84.725999,35.161137 l 0.361888,-27.2973318 3.07339,-0.43569 c 5.689371,-0.80652 6.926611,1.787099 6.926611,14.5202598 0,14.392722 0.66266,14.898765 8.571422,6.545613 5.11265,-5.399924 7.11187,-6.630184 10.77433,-6.630184 6.54837,0 6.53593,1.418961 -0.0787,8.980512 -7.26049,8.299829 -7.26273,7.605129 0.0663,20.637766 7.61278,13.537199 7.63913,14.653643 0.33333,14.125051 l -5.66667,-0.409997 -4.24789,-8 c -2.80188,-5.276741 -5.071261,-8 -6.666671,-8 -1.993321,0 -2.536041,1.407179 -3.085441,8 l -0.66667,8 -4.342497,0.418495 c -2.722482,0.26237 -4.59844,-0.248475 -5.028555,-1.369334 z m 51.465824,-0.7179 c -19.12497,-9.752062 -11.91892,-44.327115 9.23856,-44.327115 12.26332,0 19.25926,8.474349 19.25926,23.329188 0,14.85484 -6.99594,23.329189 -19.25926,23.329189 -2.56666,0 -6.72401,-1.049068 -9.23856,-2.331262 z M 152.06823,51.05801 c 2.97451,-5.768743 2.13131,-15.537101 -1.66921,-19.337617 -7.91445,-7.914452 -16.2914,3.266407 -12.63125,16.859156 2.25788,8.385142 10.51678,9.816519 14.30046,2.478461 z m 21.24188,13.916903 c -1.52278,-1.522778 -0.82354,-30.2014 0.85303,-34.986224 2.52395,-7.20316 7.62109,-10.124885 17.66355,-10.124885 h 8.54325 l 4.35897,4.355751 4.35898,4.35575 v 18.310916 18.310915 l -3.07339,0.435685 c -5.87653,0.83306 -6.92661,-1.666805 -6.92661,-16.489894 0,-18.642195 -3.30898,-23.992832 -11.51331,-18.617143 l -3.15336,2.066161 v 14.52688 c 0,17.759636 -4.29895,24.668252 -11.11111,17.856088 z m 52.8803,-0.03865 c -4.63554,-0.90294 -9.9579,-7.057268 -9.50063,-10.98571 0.57767,-4.962684 6.57527,-5.436739 10.57564,-0.835907 3.53171,4.061808 12.66417,4.915093 14.04664,1.312439 1.17851,-3.071158 -1.89225,-5.331019 -10.61001,-7.808204 -12.34723,-3.508507 -16.67484,-10.103829 -12.44711,-18.969478 5.23188,-10.971368 26.54888,-11.31511 32.13221,-0.518143 3.5203,6.807492 -3.93376,9.994692 -9.3578,4.001203 -3.38694,-3.742529 -11.94146,-3.218616 -11.94146,0.731344 0,2.008733 1.48034,3.10445 6,4.441049 15.16106,4.483588 18.66666,7.293804 18.66666,14.963887 0,10.955383 -11.70128,16.757394 -27.56414,13.66752 z m 34.85304,-0.707484 c -0.38103,-0.992943 -0.52691,-11.381265 -0.32418,-23.085161 l 0.36862,-21.279811 3.44746,-0.400744 c 6.05267,-0.703581 6.6526,1.654342 6.25384,24.579105 l -0.36797,21.154971 -4.34251,0.418495 c -2.74073,0.26413 -4.59802,-0.24742 -5.03526,-1.386855 z m 18.67338,0.01752 c -0.37733,-0.983304 -0.5232,-14.071626 -0.32417,-29.085159 l 0.36189,-27.2973348 3.44747,-0.40074 c 6.22503,-0.72362 6.63695,1.29214 6.24732,30.5712478 l -0.36145,27.162826 -4.34251,0.418495 c -2.72248,0.26237 -4.59844,-0.248475 -5.02855,-1.369335 z m 28.79916,-0.7179 c -23.98218,-12.228816 -6.92761,-52.793009 17.84435,-42.442626 17.26298,7.212937 14.35481,24.778033 -4.10238,24.778033 h -12.50341 v 2.666667 c 0,2.972468 4.41149,8 7.01975,8 0.92752,0 3.92534,-1.2 6.66182,-2.666667 9.65614,-5.17537 14.77158,-2.380835 9.47751,5.177502 -4.56745,6.520956 -16.20981,8.662162 -24.39764,4.487091 z m 15.90523,-28.23602 c 0,-6.63058 -9.06655,-9.110172 -12.75086,-3.487207 -2.9929,4.567741 -1.47636,6.058635 6.16288,6.058635 5.61775,0 6.58798,-0.378699 6.58798,-2.571428 z M 260.90339,13.197141 c -1.24414,-3.2421828 0.5374,-6.0000058 3.87599,-6.0000058 3.71536,0 6.30851,2.301909 6.30851,5.6000058 0,3.118166 -9.00571,3.471869 -10.1845,0.4 z"
       id="path329" />
  </g>
</svg>
